<svg xmlns="http://www.w3.org/2000/svg" xmlns:xlink="http://www.w3.org/1999/xlink" width="1000" zoomAndPan="magnify" viewBox="0 0 750 824.999997" height="1100" preserveAspectRatio="xMidYMid meet" version="1.0"><defs><clipPath id="a6322785b4"><path d="M 187 129 L 746.292969 129 L 746.292969 752 L 187 752 Z M 187 129 " clip-rule="nonzero"/></clipPath><clipPath id="353bc3e9e9"><path d="M 3.792969 116 L 66 116 L 66 752 L 3.792969 752 Z M 3.792969 116 " clip-rule="nonzero"/></clipPath></defs><g clip-path="url(#a6322785b4)"><path fill="#f3f5f9" d="M 685.015625 255.75 L 685.015625 751.351562 L 746.292969 751.351562 L 746.292969 129.597656 L 685.015625 178.257812 L 457.941406 353.070312 L 439.917969 367.488281 L 407.480469 392.71875 L 384.050781 410.738281 L 376.84375 405.332031 L 187.613281 257.554688 L 187.613281 336.847656 L 331.789062 450.386719 L 376.84375 484.628906 L 384.050781 490.035156 L 434.511719 450.386719 L 439.917969 446.78125 L 457.941406 432.367188 L 508.402344 392.71875 Z M 685.015625 255.75 " fill-opacity="1" fill-rule="evenodd"/></g><path fill="#f3f5f9" d="M 95.703125 189.070312 L 95.703125 751.351562 L 158.777344 751.351562 L 158.777344 199.882812 L 376.84375 369.289062 L 376.84375 289.992188 L 158.777344 122.390625 L 95.703125 73.730469 Z M 95.703125 189.070312 " fill-opacity="1" fill-rule="evenodd"/><g clip-path="url(#353bc3e9e9)"><path fill="#000000" d="M 3.792969 196.277344 L 3.792969 751.351562 L 65.066406 751.351562 L 65.066406 165.640625 L 3.792969 116.984375 Z M 3.792969 196.277344 " fill-opacity="1" fill-rule="evenodd"/></g><path fill="#000000" d="M 376.84375 616.1875 L 594.90625 448.585938 L 594.90625 751.351562 L 656.183594 751.351562 L 656.183594 320.628906 L 594.90625 369.289062 L 376.84375 538.695312 Z M 376.84375 616.1875 " fill-opacity="1" fill-rule="evenodd"/></svg>